<?xml version="1.0" standalone="no"?>
<!DOCTYPE svg PUBLIC "-//W3C//DTD SVG 20010904//EN"
 "http://www.w3.org/TR/2001/REC-SVG-20010904/DTD/svg10.dtd">
<svg version="1.0" xmlns="http://www.w3.org/2000/svg"
 width="10em" height="10em" viewBox="0 0 922.000000 687.000000"
 preserveAspectRatio="xMidYMid meet">

<g transform="translate(0.000000,687.000000) scale(0.100000,-0.100000)"
fill="#000000" stroke="none">
<path d="M4466 6651 c-15 -17 -17 -39 -14 -177 l3 -158 -33 -36 c-37 -40 -51
-81 -45 -127 5 -30 3 -32 -33 -38 -334 -55 -615 -222 -807 -480 -265 -356
-310 -846 -115 -1240 80 -160 246 -357 374 -445 50 -34 51 -36 46 -75 -3 -24
-16 -53 -34 -74 -38 -43 -66 -108 -85 -196 -20 -95 -12 -291 17 -400 42 -160
131 -296 223 -345 39 -21 47 -22 62 -10 10 8 14 21 10 34 -32 115 -26 185 37
376 77 234 59 386 -63 525 -16 18 -25 36 -20 39 5 4 43 -7 83 -23 85 -33 225
-67 321 -76 60 -7 67 -10 67 -29 0 -12 6 -30 14 -41 12 -18 10 -27 -25 -84
-46 -76 -74 -148 -96 -245 -20 -88 -23 -335 -4 -421 48 -230 173 -441 344
-584 71 -60 103 -73 113 -48 2 7 -12 76 -33 152 -34 131 -37 150 -37 285 0
121 5 167 28 280 65 309 40 511 -78 637 -24 27 -47 60 -51 74 -6 26 -5 27 52
34 85 10 216 51 312 96 46 21 85 39 86 39 2 0 6 -12 9 -26 5 -19 2 -33 -12
-48 -35 -39 -57 -120 -72 -257 -24 -235 50 -517 165 -633 53 -52 81 -64 102
-43 13 13 13 20 -1 62 -40 116 -32 210 36 420 37 117 42 140 42 235 1 95 -2
111 -27 164 -15 32 -42 73 -61 90 -18 18 -35 43 -39 56 -3 14 -8 34 -12 45 -4
15 3 26 29 43 61 41 204 198 263 288 125 192 183 376 190 606 6 172 -6 273
-49 408 -138 431 -496 745 -941 825 -84 15 -97 20 -91 34 4 9 9 37 12 62 3 38
-1 51 -24 78 -15 18 -36 36 -47 40 -19 7 -20 16 -18 169 2 151 1 161 -18 171
-27 15 -35 14 -55 -8z m54 -455 c0 -16 -28 -42 -36 -33 -7 6 18 47 28 47 5 0
8 -6 8 -14z m-150 -253 c-4 -78 -7 -88 -25 -91 -92 -13 -229 -70 -325 -135
-239 -161 -397 -422 -417 -684 l-6 -83 -105 0 -105 0 6 83 c13 164 88 372 187
517 154 226 408 400 674 460 130 29 122 34 116 -67z m438 51 c306 -87 568
-310 702 -597 39 -84 82 -218 94 -294 l6 -43 -33 0 c-19 0 -62 -3 -96 -6 l-61
-7 0 30 c0 49 -37 177 -73 256 -122 264 -343 443 -637 516 l-105 26 0 79 0 78
58 -7 c33 -3 98 -17 145 -31z m-83 -219 c87 -24 230 -95 302 -149 155 -118
267 -290 315 -484 29 -119 29 -303 -1 -417 -29 -111 -110 -270 -175 -341 l-53
-59 -7 33 c-10 42 -54 85 -104 100 -22 7 -87 21 -144 31 -108 20 -189 53 -223
92 l-20 22 20 -8 c26 -10 114 -31 189 -46 41 -8 66 -19 83 -37 27 -29 50 -19
38 17 -10 34 -44 49 -156 72 -150 31 -208 66 -243 151 -23 55 -19 70 5 20 28
-55 67 -82 133 -91 36 -5 64 -16 85 -34 37 -30 86 -42 141 -33 36 6 41 4 55
-24 18 -34 52 -54 121 -71 35 -8 58 -21 81 -47 29 -33 33 -35 39 -18 4 11 1
30 -7 45 -14 25 -46 41 -127 61 -42 11 -82 40 -82 60 0 15 90 12 146 -5 62
-19 128 -19 143 -1 16 19 -1 29 -37 21 -17 -3 -56 3 -97 16 -52 16 -83 20
-125 15 -151 -16 -177 -17 -202 -7 -16 6 -28 14 -28 19 0 10 159 62 191 62 14
0 63 -11 109 -25 46 -14 101 -25 122 -25 40 0 118 33 118 50 0 19 -20 20 -52
4 -38 -20 -133 -15 -188 9 l-35 15 72 -3 c79 -4 116 8 134 42 14 27 3 45 -15
23 -21 -28 -51 -38 -96 -32 -59 6 -80 6 -110 -3 -14 -3 -43 -10 -65 -15 -22
-5 -76 -21 -120 -36 -98 -33 -187 -37 -227 -10 -15 10 -37 37 -48 61 -61 125
-19 286 83 324 92 35 227 -11 292 -100 73 -98 225 -192 225 -139 0 5 -19 19
-42 31 -65 33 -105 67 -153 130 l-44 57 87 -1 c86 0 162 19 162 42 0 18 -16
20 -56 6 -54 -20 -124 -18 -224 5 -47 11 -112 20 -145 20 l-60 1 112 54 c88
42 117 61 133 87 25 41 26 71 3 66 -10 -2 -19 -12 -21 -23 -2 -11 -9 -26 -16
-34 -9 -11 -229 -121 -242 -121 -1 0 6 20 16 44 11 24 26 89 34 145 9 64 20
109 31 121 22 24 0 38 -25 15 -19 -17 -31 -61 -50 -182 -10 -59 -22 -89 -71
-170 -72 -120 -92 -177 -91 -263 0 -57 -3 -67 -16 -66 -24 2 -19 -61 12 -150
22 -65 23 -73 9 -105 -28 -65 -33 -92 -22 -131 7 -28 15 -38 30 -38 18 0 19 5
13 48 -4 36 -2 57 10 80 9 18 18 32 21 32 2 0 16 -20 31 -45 35 -61 28 -93
-43 -186 -79 -105 -97 -148 -89 -222 l6 -59 -43 7 c-50 9 -57 17 -57 72 0 31
8 54 31 86 22 32 33 61 38 103 4 33 10 65 15 72 5 8 0 44 -10 83 -16 60 -16
74 -5 102 39 93 38 198 -1 205 -14 3 -18 -4 -18 -30 0 -41 -27 -96 -60 -120
-15 -11 -66 -24 -129 -33 -128 -19 -191 -54 -191 -104 0 -17 40 -13 47 4 10
27 56 44 162 59 56 9 110 20 121 26 33 18 24 -9 -16 -46 -42 -40 -107 -60
-219 -69 -123 -10 -176 -28 -219 -75 -20 -22 -36 -47 -36 -56 0 -28 -24 -9
-77 61 -45 60 -123 199 -123 221 0 3 12 -1 26 -11 38 -25 92 -26 143 -3 32 14
53 18 85 13 59 -10 61 -13 26 -47 -26 -24 -42 -30 -93 -35 -45 -4 -70 -12 -90
-29 -24 -20 -26 -25 -13 -30 9 -3 23 0 32 7 9 7 28 15 43 16 102 11 113 15
149 52 53 55 93 73 179 85 16 2 48 13 73 24 25 11 58 23 74 26 43 8 74 33 92
74 34 75 36 123 11 217 -10 34 -52 98 -68 102 -10 3 -19 9 -19 14 0 5 -8 9
-18 9 -10 0 -22 3 -26 7 -3 4 -12 8 -19 9 -7 2 -23 6 -37 9 -14 3 -36 8 -48
11 -24 5 -67 29 -87 49 -23 21 -8 80 31 128 35 42 56 92 52 123 -4 34 -28 45
-28 13 0 -24 -36 -106 -55 -126 -7 -6 -18 -25 -24 -42 -12 -27 -15 -29 -34
-18 -12 7 -27 18 -35 25 -7 6 -16 12 -20 12 -4 1 -24 3 -44 6 -30 5 -38 2 -38
-10 0 -9 6 -17 13 -18 6 0 17 -2 22 -3 6 -2 17 -3 26 -4 18 -1 89 -59 89 -73
0 -5 11 -21 25 -36 14 -15 25 -31 25 -37 -1 -12 -66 -43 -107 -52 -28 -6 -71
-6 -107 -1 -10 2 -21 -2 -23 -8 -6 -18 54 -37 97 -31 38 5 39 4 29 -15 -18
-34 -72 -83 -106 -97 -20 -8 -33 -21 -33 -32 0 -17 1 -17 42 1 40 18 104 78
157 149 49 65 146 77 246 30 76 -36 100 -87 100 -216 0 -69 -1 -72 -37 -106
-33 -31 -43 -35 -90 -34 -29 0 -61 4 -70 9 -10 4 -26 12 -37 17 -10 5 -38 12
-62 16 -24 3 -63 13 -87 22 -31 12 -49 13 -65 6 -34 -15 -100 -9 -124 12 -25
21 -53 28 -53 13 0 -11 49 -57 63 -59 4 -1 12 -3 17 -4 6 -1 22 -3 38 -5 l27
-2 -30 -9 c-44 -14 -113 -14 -165 1 -25 8 -52 12 -61 11 -18 -2 -29 52 -29
143 l0 52 33 -4 c24 -2 35 2 44 17 11 18 10 22 -8 31 -16 9 -24 8 -38 -4 -26
-23 -31 -20 -31 18 0 42 10 50 36 31 28 -21 64 -18 109 10 l40 25 -30 0 c-19
0 -25 3 -17 8 8 6 2 13 -22 24 -31 15 -35 15 -65 -3 -41 -25 -43 -24 -35 9 12
55 13 56 34 37 17 -15 21 -15 40 -2 l21 15 -21 15 c-12 9 -29 13 -36 10 -8 -3
-14 1 -13 8 1 19 17 57 18 42 1 -15 70 -58 96 -59 11 -1 28 5 37 13 11 10 39
16 75 16 33 1 64 7 71 14 9 9 10 13 2 13 -6 0 -9 4 -5 9 7 12 -26 31 -46 27
-35 -7 -49 -19 -44 -37 5 -15 2 -17 -22 -12 -15 3 -33 6 -40 6 -21 1 -3 17 20
17 19 0 17 3 -12 23 -37 25 -98 28 -113 5 -6 -11 -8 -10 -8 0 0 11 26 69 35
80 2 2 17 -7 34 -19 23 -17 34 -20 42 -12 6 6 17 10 23 9 6 -2 7 -1 3 2 -5 2
-12 15 -17 28 -8 21 -26 29 -52 25 -15 -2 -8 13 31 63 126 168 316 289 521
332 85 18 312 11 395 -11z m885 -970 c-1 -60 -35 -204 -70 -292 -61 -152 -149
-282 -272 -399 -136 -129 -299 -220 -478 -269 -113 -30 -145 -32 -136 -9 3 9
6 51 6 95 0 55 4 81 13 83 6 2 46 11 87 20 99 23 245 94 318 155 33 27 82 80
111 118 92 122 190 337 220 483 l11 55 95 0 95 0 0 -40z m-1811 -101 c31 -2
74 2 96 8 58 16 58 16 83 22 44 10 177 7 177 -4 0 -1 8 -3 19 -5 22 -4 42 -22
34 -30 -3 -4 -27 -8 -53 -11 -26 -2 -55 -8 -64 -13 -9 -5 -48 -8 -87 -5 -107
7 -116 6 -159 -16 -47 -24 -61 -25 -100 -4 -16 8 -37 13 -46 11 -13 -4 -20 6
-28 39 -6 23 -11 45 -11 47 0 3 19 -5 41 -16 23 -11 67 -22 98 -23z m-155 -49
c41 -139 146 -308 251 -403 138 -127 327 -213 515 -237 l55 -7 0 -100 0 -101
-75 6 c-438 35 -836 369 -961 807 -11 36 -19 71 -19 77 0 9 23 13 78 14 42 1
88 4 102 8 31 10 33 9 54 -64z m774 -218 c-2 -23 -12 -37 -38 -53 -62 -40
-101 -76 -120 -114 -24 -48 -58 -69 -126 -80 -47 -8 -59 -6 -89 11 -19 12 -35
22 -35 24 0 2 15 12 34 23 27 16 39 34 57 82 17 47 31 67 58 85 44 29 91 42
91 26 0 -27 -30 -81 -54 -96 -29 -19 -35 -55 -10 -55 9 0 33 17 54 38 29 29
40 49 45 85 6 41 12 50 39 61 17 8 40 21 51 29 19 14 21 14 33 -9 7 -14 12
-39 10 -57z m319 20 c12 -11 34 -56 48 -100 39 -119 60 -144 135 -157 l35 -6
-45 -24 c-25 -13 -83 -36 -130 -51 l-85 -27 -7 36 c-3 20 -18 62 -32 92 -14
31 -26 73 -26 95 l1 40 39 -42 c31 -32 40 -50 40 -76 0 -19 7 -40 15 -47 12
-10 16 -8 25 15 15 41 -3 92 -50 140 -40 41 -41 42 -34 98 6 53 8 56 28 45 11
-6 31 -20 43 -31z m211 -28 c60 -12 107 -46 117 -86 3 -15 11 -30 16 -34 15
-9 -70 -81 -88 -75 -8 3 -30 6 -48 6 -52 0 -90 39 -116 118 -12 37 -24 73 -27
81 -6 15 32 12 146 -10z m-875 -57 c-49 -103 -89 -129 -136 -92 l-27 21 19 37
c25 49 51 71 103 87 76 24 78 22 41 -53z m332 -54 c-4 -13 -21 -45 -39 -73
-25 -40 -31 -60 -30 -103 l0 -53 -35 6 c-19 4 -59 16 -90 27 l-55 21 50 22
c49 22 94 65 94 91 0 16 79 84 97 84 10 0 12 -7 8 -22z m224 -143 c26 -59 22
-95 -13 -95 -13 0 -37 -3 -54 -6 -29 -6 -31 -4 -42 35 -14 55 5 124 48 174 15
17 17 16 28 -20 6 -21 21 -60 33 -88z m662 -503 c19 -69 5 -181 -41 -326 -44
-142 -64 -245 -58 -312 2 -24 0 -44 -3 -44 -11 0 -68 127 -83 186 -48 191 -46
454 6 546 21 39 32 -102 18 -253 -11 -125 -8 -184 14 -226 9 -18 11 -5 12 70
0 72 8 123 37 234 20 78 37 155 37 171 0 16 3 32 7 36 11 11 40 -34 54 -82z
m-1273 -31 c24 -51 27 -66 26 -161 0 -96 -4 -117 -43 -235 -27 -81 -45 -157
-48 -202 -3 -40 -9 -73 -13 -73 -10 0 -45 51 -74 108 -68 135 -105 385 -73
507 35 137 39 135 54 -35 13 -162 36 -288 59 -330 11 -22 13 -3 14 149 0 117
5 205 17 268 16 89 17 92 35 76 10 -9 30 -41 46 -72z m527 -306 c-3 -110 -10
-250 -16 -312 -10 -129 0 -229 32 -304 28 -64 40 -63 22 4 -21 78 -28 223 -14
302 7 39 27 117 46 175 45 142 47 152 54 255 l6 90 22 -42 c56 -104 59 -250
12 -503 -42 -223 -45 -385 -11 -524 12 -49 21 -91 18 -93 -9 -9 -132 138 -177
212 -97 157 -141 311 -142 495 -1 161 38 317 120 475 l16 30 9 -30 c5 -16 6
-120 3 -230z"/>
<path d="M4190 5952 c-46 -38 1 -99 50 -65 26 18 23 50 -6 70 -19 12 -24 11
-44 -5z"/>
<path d="M4064 5886 c-9 -23 7 -38 26 -26 13 8 13 11 -2 26 -16 17 -18 17 -24
0z"/>
<path d="M3500 5245 c-18 -21 -5 -47 22 -43 26 3 37 36 16 49 -18 12 -24 11
-38 -6z"/>
<path d="M3462 5124 c-43 -30 -21 -94 32 -94 22 0 46 28 46 55 0 20 -32 55
-50 55 -3 0 -16 -7 -28 -16z"/>
<path d="M4688 5983 c-10 -3 -21 -16 -25 -30 -4 -20 -1 -31 17 -45 20 -16 25
-17 44 -5 41 28 12 91 -36 80z"/>
<path d="M4810 5915 c0 -22 4 -26 23 -23 14 2 22 10 22 23 0 13 -8 21 -22 23
-19 3 -23 -1 -23 -23z"/>
<path d="M5427 5354 c-13 -13 -7 -52 9 -58 22 -9 46 13 42 38 -3 21 -37 34
-51 20z"/>
<path d="M5451 5211 c-23 -23 -18 -57 11 -72 46 -25 88 32 53 71 -23 25 -40
25 -64 1z"/>
<path d="M4434 5755 c-8 -19 9 -40 24 -31 13 8 9 39 -6 44 -7 2 -15 -4 -18
-13z"/>
<path d="M4510 5757 c-20 -16 -24 -45 -9 -63 28 -33 56 -1 43 50 -7 29 -12 31
-34 13z"/>
<path d="M4361 5750 c-17 -10 -5 -70 14 -70 31 0 39 62 11 73 -7 3 -19 2 -25
-3z"/>
<path d="M4633 5753 c-15 -6 -17 -49 -4 -58 11 -6 31 26 31 49 0 16 -6 18 -27
9z"/>
<path d="M4264 5732 c-32 -22 -22 -73 21 -105 23 -16 24 -16 18 -1 -4 12 -3
15 5 10 7 -4 12 -4 13 1 6 48 3 66 -11 83 -19 21 -29 24 -46 12z"/>
<path d="M4575 5720 c-11 -33 16 -57 29 -25 6 17 -2 45 -14 45 -5 0 -11 -9
-15 -20z"/>
<path d="M4678 5719 c-22 -23 -24 -68 -4 -75 8 -3 14 -11 12 -17 -1 -7 -1 -9
1 -4 3 4 11 7 18 7 18 0 32 28 31 60 -2 51 -27 63 -58 29z"/>
<path d="M4172 5695 c-2 -29 37 -63 50 -42 12 18 10 29 -4 21 -10 -5 -10 -4
-1 6 10 11 9 16 -5 26 -26 20 -37 17 -40 -11z"/>
<path d="M4767 5713 c-10 -9 -9 -61 2 -67 20 -13 46 25 42 62 -1 13 -33 17
-44 5z"/>
<path d="M4433 5692 c-7 -4 -15 -21 -19 -38 -4 -22 0 -34 15 -48 13 -12 21
-14 21 -7 0 7 5 9 10 6 10 -6 11 -4 14 38 2 24 -10 57 -22 57 -4 0 -13 -4 -19
-8z"/>
<path d="M4132 5681 c-16 -10 -5 -41 14 -41 15 0 20 35 6 44 -4 2 -14 1 -20
-3z"/>
<path d="M4830 5671 c-7 -14 -7 -22 1 -27 12 -7 29 12 29 34 0 19 -18 14 -30
-7z"/>
<path d="M4048 5653 c-47 -12 8 -123 61 -123 15 0 33 -6 41 -12 11 -10 11 -9
0 7 -8 11 -22 25 -30 32 -13 10 -11 11 8 6 25 -6 28 7 10 40 -22 42 -54 59
-90 50z"/>
<path d="M4354 5652 c-20 -14 -24 -43 -8 -68 15 -22 43 -36 29 -15 -3 6 2 14
11 19 13 7 15 15 7 37 -10 31 -22 39 -39 27z"/>
<path d="M4602 5648 c6 -18 28 -21 28 -4 0 9 -7 16 -16 16 -9 0 -14 -5 -12
-12z"/>
<path d="M4881 5645 c-28 -16 -41 -35 -47 -73 -4 -26 -3 -26 11 -8 10 13 15
15 15 6 0 -7 -8 -22 -17 -32 -17 -19 -16 -19 12 -12 45 10 82 31 89 49 11 31
6 73 -10 79 -20 8 -24 7 -53 -9z"/>
<path d="M4778 5623 c-19 -21 -24 -43 -9 -43 15 0 33 28 29 46 -3 14 -5 14
-20 -3z"/>
<path d="M4509 5614 c-18 -22 -19 -52 -1 -66 11 -10 17 -8 28 7 18 24 18 49 0
64 -10 9 -16 7 -27 -5z"/>
<path d="M4575 5608 c-2 -7 -6 -25 -7 -39 -4 -28 -40 -79 -57 -79 -6 0 -11 -4
-11 -8 0 -4 -15 -16 -32 -27 -18 -10 -37 -23 -43 -27 -5 -4 -24 -19 -41 -33
l-32 -25 5 78 c5 83 -7 125 -40 130 -21 3 -22 -7 -3 -33 15 -21 15 -100 0
-185 -20 -112 -5 -165 64 -235 12 -12 22 -27 22 -34 0 -6 4 -11 8 -11 13 0 41
-74 45 -122 4 -33 12 -43 27 -33 7 4 9 20 6 39 -8 46 -11 56 -34 109 -22 49
-22 49 -3 92 21 47 39 68 89 103 17 13 32 31 32 40 1 16 2 16 14 0 14 -19 32
-25 21 -8 -3 5 0 7 8 4 10 -3 16 4 19 21 6 31 -14 44 -37 25 -13 -11 -14 -10
-9 4 3 9 3 24 -1 34 -6 16 -7 16 -16 -1 -6 -9 -12 -27 -14 -38 -2 -11 -31 -47
-65 -79 -33 -33 -60 -63 -60 -68 0 -4 -7 -18 -16 -30 l-16 -23 -26 36 c-29 38
-32 73 -11 120 16 35 81 105 97 105 7 0 12 4 12 8 0 5 16 17 35 28 32 17 88
76 91 96 1 4 2 13 3 19 0 5 5 8 10 5 10 -7 9 -19 -7 -59 -15 -36 3 -81 27 -67
29 15 43 53 32 83 -8 20 -15 25 -28 20 -17 -6 -17 -5 0 14 31 36 12 74 -21 41
-9 -9 -12 -8 -12 5 0 20 -19 23 -25 5z"/>
<path d="M4192 5564 c3 -50 25 -74 78 -90 l25 -7 -20 23 c-17 20 -18 23 -2 17
22 -8 23 22 2 62 -15 30 -33 41 -67 41 -17 0 -19 -6 -16 -46z"/>
<path d="M4700 5592 c-14 -11 -19 -23 -15 -35 13 -32 46 -17 52 25 4 25 -12
30 -37 10z"/>
<path d="M3930 5548 c0 -21 11 -41 47 -88 3 -2 24 -5 48 -5 l44 0 -22 23 c-17
18 -18 22 -4 16 24 -9 21 10 -6 41 -15 18 -36 28 -65 32 -40 5 -42 4 -42 -19z
m87 -43 c0 -8 -4 -12 -9 -9 -5 3 -6 10 -3 15 9 13 12 11 12 -6z"/>
<path d="M4953 5542 c-28 -28 -33 -63 -6 -41 15 13 15 12 5 -8 -7 -12 -19 -26
-28 -31 -20 -11 62 -9 88 3 27 11 50 63 37 86 -14 26 -66 21 -96 -9z"/>
<path d="M4432 5541 c-14 -8 -7 -56 9 -66 13 -8 31 33 24 55 -7 22 -13 24 -33
11z"/>
<path d="M4792 5538 c-18 -18 -15 -41 4 -34 9 3 18 6 20 6 8 0 4 29 -4 34 -5
3 -14 0 -20 -6z"/>
<path d="M4384 5516 c-6 -17 2 -36 17 -36 12 0 12 37 -1 45 -6 3 -13 -1 -16
-9z"/>
<path d="M3856 5501 c-16 -26 27 -61 74 -61 13 0 17 5 13 20 -10 37 -72 66
-87 41z"/>
<path d="M4094 5495 c-6 -16 9 -34 29 -35 13 0 8 27 -8 40 -12 10 -16 9 -21
-5z"/>
<path d="M5059 5489 c-9 -17 -8 -20 3 -14 7 3 2 -3 -11 -15 l-24 -21 36 4 c42
4 67 22 67 48 0 28 -55 26 -71 -2z"/>
<path d="M4813 5483 c-15 -10 -23 -26 -23 -45 0 -29 2 -30 32 -24 41 8 48 16
54 55 5 27 2 31 -18 30 -13 0 -33 -7 -45 -16z"/>
<path d="M4207 5453 c-21 -20 16 -83 49 -83 24 0 22 39 -3 65 -27 26 -35 29
-46 18z"/>
<path d="M4015 5413 c8 -35 6 -33 42 -37 27 -4 30 -2 25 17 -7 27 -30 46 -56
47 -15 0 -17 -5 -11 -27z"/>
<path d="M3857 5410 c-6 -22 31 -60 59 -60 22 0 57 20 36 20 -7 0 -11 3 -8 8
9 15 -22 43 -52 46 -23 3 -31 0 -35 -14z"/>
<path d="M4506 5406 c-3 -13 -3 -32 0 -41 6 -15 8 -14 25 1 21 19 19 58 -3 62
-10 2 -18 -7 -22 -22z"/>
<path d="M5045 5419 c-27 -13 -51 -49 -33 -49 8 -1 6 -6 -5 -15 -17 -12 -15
-14 27 -20 39 -6 48 -4 68 16 29 29 40 56 27 65 -19 11 -64 13 -84 3z"/>
<path d="M5160 5380 c-15 -13 -16 -20 -8 -28 9 -9 7 -12 -7 -13 -13 0 -10 -4
10 -10 38 -11 78 12 73 43 -4 27 -41 31 -68 8z"/>
<path d="M4824 5372 c-12 -9 -24 -27 -27 -39 -4 -20 -1 -23 24 -23 32 0 69 31
69 58 0 24 -39 26 -66 4z"/>
<path d="M4460 5361 c0 -11 5 -23 11 -27 14 -8 29 14 22 33 -8 20 -33 16 -33
-6z"/>
<path d="M4021 5346 c-10 -11 -8 -16 9 -21 26 -8 35 -1 27 20 -8 19 -21 19
-36 1z"/>
<path d="M4200 5348 c0 -26 18 -40 46 -36 l29 3 -22 23 c-25 24 -53 29 -53 10z"/>
<path d="M4411 5351 c-16 -10 -6 -67 14 -74 17 -7 25 1 25 27 -1 30 -23 56
-39 47z"/>
<path d="M4992 5294 c-12 -8 -20 -20 -17 -25 4 -5 0 -9 -7 -9 -19 0 33 -34 54
-35 20 -2 68 37 68 54 0 25 -69 36 -98 15z"/>
<path d="M5159 5279 c-24 -18 -24 -18 -4 -34 11 -9 15 -14 10 -11 -6 2 -17 1
-25 -4 -13 -8 -13 -11 1 -25 9 -9 29 -18 44 -19 33 -4 85 20 85 40 0 8 5 14
10 14 19 0 10 29 -12 41 -35 19 -83 18 -109 -2z"/>
<path d="M4181 5281 c-17 -11 -6 -48 19 -61 29 -15 66 -6 62 15 -7 35 -54 62
-81 46z"/>
<path d="M4556 5235 c-19 -29 -14 -45 15 -45 26 0 49 48 28 61 -21 13 -25 11
-43 -16z"/>
<path d="M4865 5214 c-14 -15 -14 -17 1 -29 21 -15 53 -8 61 12 12 30 -36 43
-62 17z"/>
<path d="M4979 5184 c-10 -13 -10 -17 2 -25 21 -13 45 -11 58 5 10 12 8 17 -8
25 -27 15 -36 14 -52 -5z"/>
<path d="M5257 5182 c-13 -14 -14 -21 -5 -30 16 -16 28 -15 50 4 17 16 17 18
0 30 -23 18 -26 17 -45 -4z"/>
<path d="M3980 5183 c-16 -6 -30 -23 -30 -36 0 -4 15 -14 33 -23 32 -15 36
-15 73 4 31 17 35 21 17 22 -15 0 -21 5 -17 14 7 20 -42 32 -76 19z"/>
<path d="M3822 5168 c-17 -17 -15 -31 8 -46 17 -10 25 -9 46 5 l26 17 -24 18
c-27 21 -40 22 -56 6z m48 -18 c0 -5 -5 -10 -11 -10 -5 0 -7 5 -4 10 3 6 8 10
11 10 2 0 4 -4 4 -10z"/>
<path d="M5211 5095 c-38 -21 -42 -25 -25 -31 10 -4 23 -13 27 -21 17 -28 107
-7 107 25 0 10 -13 25 -29 35 -35 20 -27 21 -80 -8z"/>
<path d="M4714 5101 c4 -5 -4 -7 -16 -4 l-23 5 24 -21 c26 -24 30 -24 50 -12
12 8 12 12 2 25 -14 17 -46 23 -37 7z"/>
<path d="M4189 5074 c-10 -13 -10 -17 2 -25 20 -12 24 -12 50 12 l24 21 -23
-5 c-12 -3 -20 -1 -16 4 9 16 -23 10 -37 -7z"/>
<path d="M4792 5058 c-16 -16 4 -48 31 -48 39 0 49 20 22 41 -27 22 -37 23
-53 7z"/>
<path d="M5067 5063 c-9 -2 -15 -9 -12 -14 4 -5 0 -9 -7 -9 -22 -1 33 -40 56
-40 23 0 53 37 39 50 -11 12 -54 19 -76 13z"/>
<path d="M4092 5030 c-27 -25 -28 -40 -4 -41 32 -2 47 2 60 19 11 14 10 19 -5
29 -22 17 -25 17 -51 -7z"/>
<path d="M3804 5025 c-19 -15 -19 -15 0 -30 27 -21 60 -19 81 5 16 18 16 20 2
20 -10 0 -17 5 -17 10 0 15 -44 12 -66 -5z"/>
<path d="M4651 5031 c-10 -6 -10 -10 -1 -16 6 -4 9 -14 6 -22 -3 -8 -2 -11 3
-8 5 3 12 1 16 -4 7 -12 45 -11 61 1 40 30 -41 76 -85 49z"/>
<path d="M4213 5010 c-40 -16 -24 -54 22 -55 27 0 70 46 53 57 -17 10 -47 9
-75 -2z"/>
<path d="M5267 4999 c-17 -10 -17 -12 4 -30 12 -10 31 -19 41 -19 27 0 35 30
13 46 -22 17 -34 17 -58 3z"/>
<path d="M5153 4967 c-13 -16 -6 -30 24 -46 47 -24 96 -2 70 33 -16 22 -78 31
-94 13z"/>
<path d="M3754 4960 c-12 -4 -24 -17 -26 -28 -4 -16 1 -22 21 -28 36 -10 51
-6 71 19 16 20 17 22 1 34 -19 14 -37 15 -67 3z"/>
<path d="M4826 4953 c-3 -4 2 -16 11 -27 12 -13 13 -17 3 -10 -8 6 -22 13 -31
17 -14 5 -14 2 -1 -28 24 -52 93 -73 126 -39 18 18 18 17 10 39 -11 28 -101
65 -118 48z"/>
<path d="M4580 4940 c0 -18 39 -50 55 -44 20 8 19 17 -3 37 -20 19 -52 23 -52
7z"/>
<path d="M4050 4933 c-20 -8 -44 -34 -53 -57 -10 -25 19 -45 61 -41 38 4 51
12 75 54 17 30 17 31 0 24 -10 -3 -25 -11 -33 -17 -9 -7 -8 -3 3 10 16 20 16
22 2 28 -19 7 -34 7 -55 -1z"/>
<path d="M4695 4930 c-10 -17 13 -38 38 -35 30 3 29 2 17 25 -11 21 -45 27
-55 10z"/>
<path d="M4301 4913 c-5 -11 -6 -25 -1 -33 7 -11 13 -10 35 4 30 20 29 39 -3
44 -12 2 -25 -4 -31 -15z"/>
<path d="M4192 4908 c-20 -20 -14 -35 14 -34 25 2 47 23 38 38 -8 12 -38 10
-52 -4z"/>
<path d="M5447 4772 c-21 -23 -21 -41 -1 -70 22 -32 73 -27 93 9 13 24 13 29
-2 53 -21 31 -66 35 -90 8z"/>
<path d="M5415 4590 c-8 -12 20 -24 35 -15 6 3 8 11 5 16 -8 12 -32 12 -40 -1z"/>
<path d="M4860 3995 c-10 -12 -10 -18 0 -29 16 -20 42 -8 38 17 -4 26 -21 32
-38 12z"/>
<path d="M4710 3970 c-11 -11 -20 -29 -20 -40 0 -23 33 -60 55 -60 22 0 55 37
55 60 0 23 -33 60 -55 60 -8 0 -24 -9 -35 -20z"/>
<path d="M3529 4653 c-9 -2 -21 -14 -27 -27 -26 -58 58 -106 93 -53 12 19 13
31 6 51 -6 14 -15 26 -20 26 -5 0 -15 2 -23 4 -7 2 -20 2 -29 -1z"/>
<path d="M3580 4445 c0 -29 34 -36 44 -9 8 21 -1 34 -25 34 -14 0 -19 -7 -19
-25z"/>
<path d="M4203 3993 c-7 -3 -13 -13 -13 -23 0 -19 17 -30 38 -23 6 3 12 13 12
23 0 19 -17 30 -37 23z"/>
<path d="M4305 3950 c-35 -39 17 -101 66 -77 47 24 32 97 -20 97 -15 0 -36 -9
-46 -20z"/>
<path d="M686 1935 c-123 -50 -293 -188 -392 -317 -57 -74 -118 -188 -139
-261 -32 -111 -16 -272 34 -353 37 -61 117 -104 190 -104 90 1 245 78 336 167
130 127 240 351 252 513 7 91 -10 140 -59 170 -28 18 -44 21 -110 17 -43 -3
-78 -3 -78 -1 0 8 135 44 166 44 21 0 37 6 40 15 8 21 -44 111 -72 124 -40 18
-104 12 -168 -14z m163 -261 c72 -92 -58 -370 -263 -561 -76 -71 -179 -133
-221 -133 -38 0 -83 21 -99 45 -47 71 12 259 140 452 31 46 58 82 60 80 2 -2
-7 -28 -20 -58 -42 -94 -41 -107 4 -44 106 149 236 242 342 244 28 1 41 -5 57
-25z"/>
<path d="M5330 1928 c-84 -31 -211 -121 -280 -196 -113 -123 -192 -327 -194
-501 -1 -80 2 -95 17 -105 14 -9 27 -6 61 14 53 31 196 190 171 190 -10 0 -38
-20 -63 -45 l-45 -45 5 64 c9 110 96 286 197 397 76 85 171 145 209 132 45
-16 -49 -307 -184 -573 -88 -174 -95 -183 -163 -229 -207 -141 -339 -294 -343
-398 -1 -38 20 -63 53 -63 49 0 212 179 357 394 l67 98 100 52 c55 28 102 52
105 53 3 2 6 -14 6 -35 2 -60 32 -139 69 -177 31 -33 34 -34 66 -24 22 8 71
50 136 118 57 58 103 104 103 101 0 -3 -9 -34 -20 -68 -24 -77 -25 -130 -4
-160 19 -28 53 -28 107 -1 55 29 268 238 319 314 38 57 43 61 96 72 97 21 97
21 38 -65 -88 -129 -108 -234 -55 -291 45 -48 112 -19 235 101 l61 59 13 -45
c7 -26 25 -67 41 -91 46 -72 61 -66 201 73 l118 118 -8 -55 c-16 -127 -5 -197
35 -212 55 -21 148 38 238 149 l50 61 12 -55 c39 -173 148 -182 300 -28 35 35
65 64 67 64 2 0 6 -18 9 -40 6 -44 30 -88 53 -97 19 -7 43 15 119 112 62 79
213 231 221 222 3 -2 -23 -53 -58 -112 -65 -115 -84 -187 -59 -233 31 -58 92
-35 222 81 l97 86 11 -43 c13 -51 78 -117 135 -136 81 -26 187 19 312 134 51
47 65 66 63 84 -4 23 -6 22 -59 -19 -73 -55 -126 -79 -178 -79 l-44 0 59 47
c140 111 172 200 127 357 -8 27 -14 64 -14 83 0 27 -5 34 -26 39 -34 9 -76
-22 -88 -65 -13 -46 -287 -336 -374 -395 -160 -110 -160 1 1 182 26 29 49 62
52 75 9 35 -16 101 -40 105 -39 5 -149 -78 -283 -215 -94 -97 -136 -133 -143
-126 -16 16 12 69 79 148 74 87 87 108 79 128 -11 28 -79 22 -117 -9 -40 -34
-114 -139 -141 -198 -15 -34 -37 -59 -80 -91 -90 -67 -172 -72 -193 -14 -15
43 1 75 77 156 73 79 121 158 115 190 -6 30 -52 39 -98 18 -68 -31 -171 -159
-200 -250 -15 -48 -37 -73 -113 -131 -68 -51 -99 -55 -124 -18 -15 23 -15 34
-5 92 14 83 72 203 201 416 111 184 131 232 113 271 -15 33 -45 32 -77 -2 -33
-35 -111 -166 -176 -294 l-50 -100 -26 21 c-41 32 -90 26 -185 -22 -107 -55
-228 -170 -250 -238 -12 -38 -24 -52 -77 -87 -82 -56 -141 -56 -141 -1 0 32
46 110 99 171 28 32 56 67 61 78 14 25 -5 98 -27 106 -9 4 -61 1 -116 -5 -55
-7 -102 -10 -104 -8 -3 2 0 14 7 25 33 62 -43 38 -105 -32 -75 -86 -94 -171
-44 -193 20 -9 19 -11 -17 -60 -67 -91 -189 -157 -229 -124 -30 24 -18 84 29
152 69 101 69 101 49 149 -16 42 -16 43 5 57 28 18 28 52 1 81 -19 20 -28 22
-66 17 -114 -15 -281 -114 -406 -239 -54 -53 -101 -89 -148 -112 -38 -19 -73
-35 -78 -35 -6 0 3 23 20 52 100 170 224 486 236 603 7 71 -10 113 -53 131
-44 18 -68 17 -134 -8z m550 -534 c0 -9 -87 -121 -149 -193 -61 -71 -163 -151
-191 -151 -22 0 -30 19 -30 69 0 68 69 130 255 228 99 52 115 59 115 47z
m2649 -137 c1 -73 -20 -120 -67 -152 l-35 -24 -42 44 c-23 25 -49 45 -58 45
-9 0 -17 3 -17 7 0 4 46 54 103 111 l102 102 7 -37 c4 -21 7 -64 7 -96z
m-1539 101 c0 -31 -59 -104 -147 -180 -129 -111 -149 -124 -168 -108 -19 16
-19 24 0 88 18 60 50 85 203 164 101 51 112 55 112 36z"/>
<path d="M1415 1872 c-113 -69 -287 -339 -360 -557 -64 -189 -31 -389 66 -410
49 -11 127 34 208 121 l70 75 11 -43 c25 -100 60 -140 123 -140 50 0 93 26
175 105 64 63 72 68 72 46 0 -40 49 -128 81 -144 55 -29 87 -15 196 88 l69 65
41 -11 c37 -10 47 -8 91 15 l50 26 11 -55 c22 -111 80 -161 173 -150 70 9 141
51 226 135 40 39 75 72 76 72 2 0 6 -20 9 -45 8 -56 40 -121 68 -136 33 -17
82 -13 129 11 42 21 180 153 180 172 0 5 20 30 44 56 24 26 55 66 69 88 24 39
30 43 90 53 91 16 91 16 47 -41 -92 -120 -123 -238 -81 -305 16 -25 28 -33 50
-33 49 0 77 16 165 95 47 41 87 75 90 75 4 0 6 -8 6 -17 0 -31 47 -119 74
-141 40 -31 65 -17 188 105 l107 107 -19 -63 c-25 -79 -26 -153 -3 -176 40
-40 134 10 261 138 55 55 73 80 70 97 -3 22 -4 21 -43 -10 -78 -63 -146 -85
-173 -58 -7 7 -12 29 -12 51 0 30 11 55 50 111 52 75 59 105 38 152 -11 24
-10 28 10 42 28 18 28 42 0 77 -19 24 -26 27 -64 21 -152 -20 -435 -215 -479
-329 -22 -57 -110 -120 -169 -121 -39 -1 -41 0 -44 32 -4 40 30 102 104 190
56 66 64 93 44 148 -11 27 -11 27 -88 20 -42 -3 -97 -9 -121 -13 -42 -6 -43
-5 -31 16 16 30 7 51 -20 44 -30 -8 -103 -85 -128 -136 -29 -57 -29 -101 0
-121 l21 -15 -29 -42 c-29 -43 -103 -104 -161 -133 -71 -36 -133 -11 -133 54
0 35 8 48 76 120 77 82 130 173 118 203 -16 43 -85 31 -150 -26 -56 -50 -141
-175 -150 -222 -4 -25 -20 -45 -62 -78 -125 -97 -229 -125 -271 -71 -12 15
-21 41 -21 59 0 30 5 34 104 83 111 55 194 121 220 176 78 165 -115 184 -297
29 -70 -59 -133 -142 -148 -194 -19 -62 -98 -101 -129 -64 -10 12 -5 26 30 80
77 117 97 235 41 235 -44 0 -160 -153 -182 -241 -11 -42 -24 -61 -77 -111
-110 -102 -158 -97 -132 16 8 36 23 60 69 107 64 66 128 175 118 202 -9 24
-69 32 -104 14 -49 -26 -151 -170 -173 -244 -9 -29 -26 -51 -59 -76 -97 -73
-154 -85 -196 -42 -43 42 -33 67 65 171 135 142 148 255 26 214 -66 -21 -197
-181 -212 -258 -8 -37 -130 -158 -170 -168 -65 -16 -104 28 -104 117 0 48 3
55 52 108 170 186 298 422 298 551 0 73 -19 86 -75 52z m-15 -170 c0 -51 -110
-244 -190 -332 l-31 -35 5 33 c8 49 62 179 102 244 69 113 114 149 114 90z
m1280 -300 c0 -45 -91 -137 -177 -181 -40 -20 -43 -20 -43 -3 0 39 81 139 150
185 34 23 70 22 70 -1z m1444 -14 c-16 -28 -101 -137 -151 -195 -53 -61 -162
-143 -189 -143 -8 0 -19 12 -25 28 -29 75 50 162 237 259 124 65 140 71 128
51z"/>
<path d="M1722 1676 c-39 -45 -50 -91 -26 -117 19 -21 55 -25 84 -9 46 24 77
119 48 148 -24 24 -74 14 -106 -22z"/>
<path d="M3132 1695 c-44 -32 -68 -115 -40 -143 51 -51 168 60 135 129 -15 30
-62 37 -95 14z"/>
<path d="M7588 1700 c-26 -16 -58 -74 -58 -107 0 -89 117 -63 151 35 21 60
-36 105 -93 72z"/>
<path d="M8827 462 c-22 -24 -21 -45 1 -65 27 -24 59 -21 78 8 15 23 15 27 0
50 -20 30 -56 33 -79 7z"/>
<path d="M170 413 c-12 -32 -26 -63 -32 -70 -8 -10 -4 -13 16 -13 23 0 26 3
21 20 -5 17 -2 20 24 20 33 0 39 -8 19 -28 -9 -9 -5 -12 21 -12 27 0 31 3 22
14 -6 7 -19 37 -29 67 -10 29 -23 54 -29 56 -6 2 -21 -22 -33 -54z m43 -3 c4
-15 0 -20 -15 -20 -14 0 -18 5 -14 16 3 9 6 20 6 25 0 17 17 1 23 -21z"/>
<path d="M408 459 c15 -17 16 -101 0 -117 -9 -9 -6 -12 14 -12 22 0 25 4 20
25 -2 15 0 25 7 25 6 0 17 -11 23 -25 6 -14 17 -25 25 -25 11 0 11 4 -2 23
-12 19 -13 29 -3 55 15 40 5 52 -53 59 -36 5 -42 3 -31 -8z m67 -34 c0 -11 -8
-21 -17 -23 -14 -3 -18 3 -18 23 0 20 4 26 18 23 9 -2 17 -12 17 -23z"/>
<path d="M640 448 c0 -17 3 -19 12 -10 23 23 30 11 26 -48 -3 -58 -2 -60 22
-60 19 0 21 3 12 12 -18 18 -16 108 2 108 8 0 17 -6 19 -12 3 -7 6 -3 6 10 1
20 -4 22 -49 22 -45 0 -50 -2 -50 -22z"/>
<path d="M888 458 c16 -16 16 -100 0 -116 -9 -9 -2 -12 35 -12 42 0 47 2 46
23 0 12 -3 16 -6 10 -8 -21 -43 -15 -43 7 0 11 7 20 15 20 8 0 15 5 15 10 0 6
-7 10 -15 10 -8 0 -15 9 -15 20 0 22 35 28 43 8 3 -7 6 -3 6 10 1 20 -4 22
-46 22 -37 0 -44 -3 -35 -12z"/>
<path d="M1138 450 c-20 -16 -21 -20 -8 -35 8 -9 24 -21 37 -26 13 -5 23 -13
23 -19 0 -17 -31 -24 -51 -11 -15 9 -19 8 -19 -4 0 -8 4 -15 9 -15 5 0 16 -3
24 -6 20 -7 58 31 51 50 -3 8 -19 20 -35 26 -16 7 -28 18 -26 24 6 17 38 20
48 4 7 -10 9 -10 9 3 0 25 -37 30 -62 9z"/>
<path d="M1380 413 c-12 -32 -26 -63 -32 -70 -8 -10 -4 -13 16 -13 23 0 26 3
21 20 -5 17 -2 20 24 20 33 0 39 -8 19 -28 -9 -9 -5 -12 21 -12 27 0 31 3 22
14 -6 7 -19 37 -29 67 -10 29 -23 54 -29 56 -6 2 -21 -22 -33 -54z m43 -3 c4
-15 0 -20 -15 -20 -14 0 -18 5 -14 16 3 9 6 20 6 25 0 17 17 1 23 -21z"/>
<path d="M1615 400 c0 -67 1 -70 24 -70 19 0 21 3 12 14 -7 8 -11 30 -9 48 l3
33 30 -47 c40 -64 55 -62 55 6 0 30 3 61 6 70 4 11 0 16 -14 16 -17 0 -19 -5
-14 -45 2 -25 1 -45 -4 -45 -5 0 -20 20 -33 45 -13 25 -31 45 -40 45 -13 0
-16 -12 -16 -70z"/>
<path d="M1910 413 c-12 -32 -26 -63 -32 -70 -8 -10 -4 -13 16 -13 23 0 26 3
21 20 -5 17 -2 20 24 20 33 0 39 -8 19 -28 -9 -9 -5 -12 21 -12 27 0 31 3 22
14 -6 7 -19 37 -29 67 -10 29 -23 54 -29 56 -6 2 -21 -22 -33 -54z m43 -3 c4
-15 0 -20 -15 -20 -14 0 -18 5 -14 16 3 9 6 20 6 25 0 17 17 1 23 -21z"/>
<path d="M2141 448 c0 -13 3 -17 6 -10 2 6 11 12 19 12 18 0 20 -90 2 -108 -9
-9 -7 -12 13 -12 23 0 24 2 21 60 -4 59 3 71 26 48 9 -9 12 -7 12 10 0 20 -5
22 -50 22 -45 0 -50 -2 -49 -22z"/>
<path d="M2412 459 c-47 -18 -48 -94 -2 -119 45 -24 96 43 72 94 -12 27 -39
36 -70 25z m43 -59 c0 -41 -2 -45 -25 -45 -21 0 -26 5 -28 33 -5 47 4 64 30
60 20 -3 23 -9 23 -48z"/>
<path d="M2830 413 c-12 -32 -26 -63 -32 -70 -8 -10 -4 -13 16 -13 23 0 26 3
21 20 -5 17 -2 20 24 20 33 0 39 -8 19 -28 -9 -9 -5 -12 21 -12 27 0 31 3 22
14 -6 7 -19 37 -29 67 -10 29 -23 54 -29 56 -6 2 -21 -22 -33 -54z m43 -3 c4
-15 0 -20 -15 -20 -14 0 -18 5 -14 16 3 9 6 20 6 25 0 17 17 1 23 -21z"/>
<path d="M3248 459 c-28 -16 -22 -47 12 -64 17 -9 30 -22 30 -30 0 -18 -46
-20 -53 -2 -4 7 -6 6 -6 -4 -1 -22 23 -31 55 -19 34 13 29 50 -8 68 -16 7 -28
20 -28 28 0 17 46 19 53 2 3 -8 6 -6 6 5 1 9 -3 17 -8 17 -5 0 -15 2 -23 5 -7
2 -21 0 -30 -6z"/>
<path d="M3465 400 l0 -70 43 0 c37 0 42 3 41 23 0 12 -3 16 -6 10 -2 -7 -16
-13 -29 -13 -17 0 -24 6 -24 20 0 13 7 20 20 20 11 0 20 5 20 10 0 6 -9 10
-20 10 -13 0 -20 7 -20 20 0 23 29 27 48 8 9 -9 12 -7 12 10 0 19 -5 22 -42
22 l-43 0 0 -70z"/>
<path d="M3698 459 c15 -17 16 -101 0 -117 -9 -9 -6 -12 14 -12 22 0 25 4 20
25 -2 15 0 25 7 25 6 0 17 -11 23 -25 6 -14 17 -25 25 -25 11 0 11 4 -2 23
-12 19 -13 29 -3 55 15 40 5 52 -53 59 -36 5 -42 3 -31 -8z m67 -34 c0 -11 -8
-21 -17 -23 -14 -3 -18 3 -18 23 0 20 4 26 18 23 9 -2 17 -12 17 -23z"/>
<path d="M3943 448 c8 -13 20 -44 27 -70 14 -53 34 -62 45 -21 3 15 15 45 26
67 10 22 19 41 19 43 0 2 -12 3 -27 3 -20 0 -24 -3 -16 -11 11 -11 9 -24 -14
-89 -3 -9 -10 3 -18 29 -8 24 -11 49 -8 57 4 10 -3 14 -21 14 -25 0 -26 -1
-13 -22z"/>
<path d="M4198 458 c16 -16 16 -100 0 -116 -9 -9 -7 -12 13 -12 23 0 24 2 24
70 0 68 -1 70 -24 70 -20 0 -22 -3 -13 -12z"/>
<path d="M4415 446 c-14 -14 -25 -35 -25 -46 0 -29 18 -60 35 -60 7 0 15 -4
17 -10 2 -5 14 -1 28 10 l24 18 -34 -1 -35 -2 0 45 c0 40 3 45 24 48 13 2 28
-2 32 -10 7 -10 9 -9 9 5 0 9 -4 17 -9 17 -5 0 -16 3 -25 6 -9 3 -26 -5 -41
-20z"/>
<path d="M4672 459 c-47 -18 -48 -94 -2 -119 45 -24 96 43 72 94 -12 27 -39
36 -70 25z m43 -59 c0 -41 -2 -45 -25 -45 -21 0 -26 5 -28 33 -5 47 4 64 30
60 20 -3 23 -9 23 -48z"/>
<path d="M5065 401 l0 -71 28 0 c34 0 77 40 77 73 0 36 -22 58 -65 64 l-40 5
0 -71z m70 -1 c0 -39 -3 -45 -22 -48 -21 -3 -23 0 -23 48 0 48 2 51 23 48 19
-3 22 -9 22 -48z"/>
<path d="M5340 413 c-12 -32 -26 -63 -32 -70 -8 -10 -4 -13 16 -13 23 0 26 3
21 20 -5 17 -2 20 24 20 33 0 39 -8 19 -28 -9 -9 -5 -12 21 -12 27 0 31 3 22
14 -6 7 -19 37 -29 67 -10 29 -23 54 -29 56 -6 2 -21 -22 -33 -54z m43 -3 c4
-15 0 -20 -15 -20 -14 0 -18 5 -14 16 3 9 6 20 6 25 0 17 17 1 23 -21z"/>
<path d="M5748 415 c3 -35 0 -60 -8 -70 -10 -13 -9 -15 12 -15 21 0 24 4 20
34 -7 58 3 62 31 13 16 -26 32 -47 37 -47 6 0 10 26 10 58 0 32 5 63 12 70 9
9 6 12 -14 12 -24 0 -25 -2 -20 -45 2 -25 2 -45 -1 -45 -3 0 -17 20 -31 45
-37 63 -54 59 -48 -10z"/>
<path d="M6030 413 c-12 -32 -26 -63 -32 -70 -8 -10 -4 -13 16 -13 23 0 26 3
21 20 -5 17 -2 20 24 20 33 0 39 -8 19 -28 -9 -9 -5 -12 21 -12 27 0 31 3 22
14 -6 7 -19 37 -29 67 -10 29 -23 54 -29 56 -6 2 -21 -22 -33 -54z m43 -3 c4
-15 0 -20 -15 -20 -14 0 -18 5 -14 16 3 9 6 20 6 25 0 17 17 1 23 -21z"/>
<path d="M6261 448 c0 -13 3 -17 6 -10 2 6 11 12 19 12 18 0 20 -90 2 -108 -9
-9 -7 -12 13 -12 23 0 24 2 21 60 -4 59 3 71 26 48 9 -9 12 -7 12 10 0 20 -5
22 -50 22 -45 0 -50 -2 -49 -22z"/>
<path d="M6506 433 c10 -70 14 -82 34 -93 31 -16 58 4 65 48 3 20 8 47 11 60
4 18 0 22 -23 22 -21 0 -24 -3 -15 -12 13 -13 16 -66 6 -92 -8 -21 -40 -21
-48 0 -10 26 -7 79 6 92 9 9 6 12 -14 12 -25 0 -26 -2 -22 -37z"/>
<path d="M6775 400 c0 -68 1 -70 25 -70 19 0 21 3 12 12 -17 17 -15 38 3 38 9
0 21 -11 27 -25 6 -14 17 -25 25 -25 10 0 10 6 -4 26 -14 21 -14 30 -4 46 24
38 -4 67 -64 68 -18 0 -20 -7 -20 -70z m69 34 c8 -21 -1 -34 -25 -34 -14 0
-19 7 -19 25 0 29 34 36 44 9z"/>
<path d="M7018 458 c7 -7 12 -33 12 -58 0 -25 -5 -51 -12 -58 -9 -9 -2 -12 35
-12 42 0 47 2 46 23 0 12 -3 16 -6 10 -8 -21 -43 -15 -43 7 0 11 7 20 15 20 8
0 15 5 15 10 0 6 -7 10 -15 10 -8 0 -15 9 -15 20 0 22 35 28 43 8 3 -7 6 -3 6
10 1 20 -4 22 -46 22 -37 0 -44 -3 -35 -12z"/>
<path d="M7250 448 c0 -17 3 -19 12 -10 13 13 48 16 48 5 0 -5 -14 -28 -30
-53 -16 -25 -30 -48 -30 -52 0 -5 20 -8 45 -8 40 0 45 2 45 23 0 16 -3 18 -9
9 -4 -8 -18 -12 -30 -10 -20 3 -20 4 9 48 41 61 39 70 -15 70 -40 0 -45 -3
-45 -22z"/>
<path d="M7510 413 c-12 -32 -26 -63 -32 -70 -8 -10 -4 -13 16 -13 23 0 26 3
21 20 -5 17 -2 20 24 20 33 0 39 -8 19 -28 -9 -9 -5 -12 21 -12 27 0 31 3 22
14 -6 7 -19 37 -29 67 -10 29 -23 54 -29 56 -6 2 -21 -22 -33 -54z m43 -3 c4
-15 0 -20 -15 -20 -14 0 -18 5 -14 16 3 9 6 20 6 25 0 17 17 1 23 -21z"/>
<path d="M8098 459 c-37 -21 -8 -99 36 -99 45 0 59 41 30 85 -17 27 -38 31
-66 14z"/>
<path d="M8468 459 c-37 -21 -8 -99 36 -99 29 0 46 18 46 50 0 46 -43 72 -82
49z"/>
</g>
</svg>
